<svg width="31" height="29" viewBox="0 0 31 29" fill="none" xmlns="http://www.w3.org/2000/svg">
<path d="M29.6778 6.90415L29.682 6.91145L29.6864 6.91868C29.8733 7.23036 29.9802 7.58347 29.9975 7.94651C30.0147 8.30677 29.9431 8.66568 29.789 8.9917L24.5442 19.4813C24.544 19.4817 24.5438 19.4821 24.5437 19.4824C24.4937 19.581 24.4175 19.664 24.3235 19.7221C24.2294 19.7802 24.1211 19.8113 24.0105 19.8118H9.605H9.58788L9.57077 19.8124C9.43512 19.817 9.3019 19.7756 9.1928 19.6949C9.0837 19.6141 9.00514 19.4988 8.96994 19.3678L8.96984 19.3674L4.55154 2.94284L4.35241 2.20261H3.58587H1.60083C1.44148 2.20261 1.28866 2.1393 1.17598 2.02663C1.0633 1.91395 1 1.76112 1 1.60177C1 1.44242 1.0633 1.2896 1.17598 1.17692C1.28866 1.06424 1.44148 1.00094 1.60083 1.00094H4.8025H4.81962L4.83674 1.00035C4.97238 0.995706 5.1056 1.03712 5.21471 1.11786C5.32267 1.19775 5.40072 1.31149 5.43646 1.44088L6.36321 5.05202L6.55605 5.80344H7.33182H27.8137C28.1916 5.81078 28.5613 5.9153 28.8872 6.107C29.2152 6.29993 29.4876 6.57458 29.6778 6.90415Z" fill="white" stroke="black" stroke-width="2"/>
<path d="M10.2057 26.4147C10.2057 27.1886 9.57834 27.816 8.80445 27.816C8.03056 27.816 7.4032 27.1886 7.4032 26.4147C7.4032 25.6408 8.03056 25.0135 8.80445 25.0135C9.57834 25.0135 10.2057 25.6408 10.2057 26.4147Z" fill="white" stroke="black" stroke-width="2"/>
<path d="M26.2141 26.4147C26.2141 27.1886 25.5868 27.816 24.8129 27.816C24.039 27.816 23.4116 27.1886 23.4116 26.4147C23.4116 25.6408 24.039 25.0135 24.8129 25.0135C25.5868 25.0135 26.2141 25.6408 26.2141 26.4147Z" fill="white" stroke="black" stroke-width="2"/>
</svg>
