<svg width="331" height="33" viewBox="0 0 331 33" fill="none" xmlns="http://www.w3.org/2000/svg">
<path d="M26.64 3.144V5.976H15.648V33H11.472V5.976H0.48V3.144H26.64ZM38.2766 9.72H49.6526C52.1806 9.72 53.4446 10.984 53.4446 13.512V33H49.3166V14.04C49.3166 13.432 49.2206 13.032 49.0286 12.84C48.8366 12.648 48.4366 12.552 47.8286 12.552H37.2686C36.6926 12.552 36.2766 12.68 36.0206 12.936C35.7646 13.192 35.6366 13.624 35.6366 14.232V15.72H35.5886V33H31.4606V0.887999H35.5886V11.4C35.9406 10.28 36.8366 9.72 38.2766 9.72ZM65.2493 19.656H79.4573V14.04C79.4573 13.432 79.3613 13.032 79.1693 12.84C78.9773 12.648 78.5773 12.552 77.9693 12.552H66.7373C66.1293 12.552 65.7293 12.648 65.5373 12.84C65.3453 13.032 65.2493 13.432 65.2493 14.04V19.656ZM64.9133 9.72H79.7453C82.2733 9.72 83.5373 10.984 83.5373 13.512V22.488H65.2493V28.68C65.2493 29.32 65.3453 29.736 65.5373 29.928C65.7293 30.088 66.1293 30.168 66.7373 30.168H77.8253C78.4653 30.168 78.8653 30.088 79.0253 29.928C79.2173 29.736 79.3133 29.32 79.3133 28.68V26.424H83.3933V29.208C83.3933 31.736 82.1293 33 79.6013 33H64.9133C62.3853 33 61.1213 31.736 61.1213 29.208V13.512C61.1213 10.984 62.3853 9.72 64.9133 9.72ZM109.342 24.264H123.55L116.398 6.024L109.342 24.264ZM126.958 33L124.654 27.096H108.238L105.982 33H101.758L113.374 3.144H119.47L131.134 33H126.958ZM144.989 9.72H149.981V12.648H144.365C142.285 12.648 141.245 13.848 141.245 16.248V33H137.117V9.72H141.245V12.648C141.757 10.696 143.005 9.72 144.989 9.72ZM166.117 12.552H160.261V28.44C160.261 29.048 160.357 29.448 160.549 29.64C160.741 29.832 161.141 29.928 161.749 29.928H166.069V33H159.925C157.397 33 156.133 31.736 156.133 29.208V12.552H152.389V9.72H156.133V5.688H160.261V9.72H166.117V12.552ZM207.907 3.144H212.131V33H207.907V19.464H190.243V33H186.019V3.144H190.243V16.632H207.907V3.144ZM238.778 28.68V14.04C238.778 13.432 238.682 13.032 238.49 12.84C238.33 12.648 237.93 12.552 237.29 12.552H226.346C225.706 12.552 225.29 12.648 225.098 12.84C224.938 13.032 224.858 13.432 224.858 14.04V28.68C224.858 29.32 224.938 29.736 225.098 29.928C225.29 30.088 225.706 30.168 226.346 30.168H237.29C237.93 30.168 238.33 30.088 238.49 29.928C238.682 29.736 238.778 29.32 238.778 28.68ZM224.57 9.72H239.066C241.594 9.72 242.858 10.984 242.858 13.512V29.208C242.858 31.736 241.594 33 239.066 33H224.57C222.042 33 220.778 31.736 220.778 29.208V13.512C220.778 10.984 222.042 9.72 224.57 9.72ZM268.351 9.72H272.479V33H268.351V31.464C267.935 32.488 267.055 33 265.711 33H254.335C251.807 33 250.543 31.736 250.543 29.208V9.72H254.671V28.68C254.671 29.32 254.767 29.736 254.959 29.928C255.151 30.088 255.551 30.168 256.159 30.168H266.719C267.295 30.168 267.711 30.04 267.967 29.784C268.223 29.528 268.351 29.096 268.351 28.488V9.72ZM297.005 28.728V24.312C297.005 23.704 296.909 23.304 296.717 23.112C296.557 22.92 296.157 22.824 295.517 22.824H284.429C281.901 22.824 280.637 21.56 280.637 19.032V13.512C280.637 10.984 281.901 9.72 284.429 9.72H297.197C299.725 9.72 300.989 10.984 300.989 13.512V16.008H296.957V13.992C296.957 13.352 296.861 12.952 296.669 12.792C296.477 12.6 296.077 12.504 295.469 12.504H286.205C285.565 12.504 285.149 12.6 284.957 12.792C284.797 12.952 284.717 13.352 284.717 13.992V18.504C284.717 19.144 284.797 19.56 284.957 19.752C285.149 19.912 285.565 19.992 286.205 19.992H297.293C299.821 19.992 301.085 21.256 301.085 23.784V29.208C301.085 31.736 299.821 33 297.293 33H284.525C281.997 33 280.733 31.736 280.733 29.208V26.712H284.813V28.728C284.813 29.336 284.893 29.736 285.053 29.928C285.245 30.12 285.661 30.216 286.301 30.216H295.517C296.157 30.216 296.557 30.12 296.717 29.928C296.909 29.736 297.005 29.336 297.005 28.728ZM312.421 19.656H326.629V14.04C326.629 13.432 326.533 13.032 326.341 12.84C326.149 12.648 325.749 12.552 325.141 12.552H313.909C313.301 12.552 312.901 12.648 312.709 12.84C312.517 13.032 312.421 13.432 312.421 14.04V19.656ZM312.085 9.72H326.917C329.445 9.72 330.709 10.984 330.709 13.512V22.488H312.421V28.68C312.421 29.32 312.517 29.736 312.709 29.928C312.901 30.088 313.301 30.168 313.909 30.168H324.997C325.637 30.168 326.037 30.088 326.197 29.928C326.389 29.736 326.485 29.32 326.485 28.68V26.424H330.565V29.208C330.565 31.736 329.301 33 326.773 33H312.085C309.557 33 308.293 31.736 308.293 29.208V13.512C308.293 10.984 309.557 9.72 312.085 9.72Z" fill="black"/>
</svg>
